<svg width="30" height="25" viewBox="0 0 30 25" fill="none" xmlns="http://www.w3.org/2000/svg">
<path d="M14.9498 18.75C16.9322 18.75 18.8335 18.0915 20.2353 16.9194C21.6371 15.7473 22.4246 14.1576 22.4246 12.5C22.4246 10.8424 21.6371 9.25268 20.2353 8.08058C18.8335 6.90848 16.9322 6.25 14.9498 6.25C12.9673 6.25 11.066 6.90848 9.66422 8.08058C8.26241 9.25268 7.47488 10.8424 7.47488 12.5C7.47488 14.1576 8.26241 15.7473 9.66422 16.9194C11.066 18.0915 12.9673 18.75 14.9498 18.75V18.75ZM14.9498 0C15.1976 0 15.4352 0.08231 15.6104 0.228823C15.7857 0.375336 15.8841 0.57405 15.8841 0.78125V3.90625C15.8841 4.11345 15.7857 4.31216 15.6104 4.45868C15.4352 4.60519 15.1976 4.6875 14.9498 4.6875C14.7019 4.6875 14.4643 4.60519 14.2891 4.45868C14.1138 4.31216 14.0154 4.11345 14.0154 3.90625V0.78125C14.0154 0.57405 14.1138 0.375336 14.2891 0.228823C14.4643 0.08231 14.7019 0 14.9498 0V0ZM14.9498 20.3125C15.1976 20.3125 15.4352 20.3948 15.6104 20.5413C15.7857 20.6878 15.8841 20.8865 15.8841 21.0938V24.2188C15.8841 24.426 15.7857 24.6247 15.6104 24.7712C15.4352 24.9177 15.1976 25 14.9498 25C14.7019 25 14.4643 24.9177 14.2891 24.7712C14.1138 24.6247 14.0154 24.426 14.0154 24.2188V21.0938C14.0154 20.8865 14.1138 20.6878 14.2891 20.5413C14.4643 20.3948 14.7019 20.3125 14.9498 20.3125V20.3125ZM29.8995 12.5C29.8995 12.7072 29.8011 12.9059 29.6258 13.0524C29.4506 13.1989 29.213 13.2812 28.9652 13.2812H25.2277C24.9799 13.2812 24.7422 13.1989 24.567 13.0524C24.3918 12.9059 24.2934 12.7072 24.2934 12.5C24.2934 12.2928 24.3918 12.0941 24.567 11.9476C24.7422 11.8011 24.9799 11.7188 25.2277 11.7188H28.9652C29.213 11.7188 29.4506 11.8011 29.6258 11.9476C29.8011 12.0941 29.8995 12.2928 29.8995 12.5ZM5.60616 12.5C5.60616 12.7072 5.50772 12.9059 5.33249 13.0524C5.15726 13.1989 4.91961 13.2812 4.6718 13.2812H0.93436C0.686552 13.2812 0.448894 13.1989 0.273668 13.0524C0.0984412 12.9059 0 12.7072 0 12.5C0 12.2928 0.0984412 12.0941 0.273668 11.9476C0.448894 11.8011 0.686552 11.7188 0.93436 11.7188H4.6718C4.91961 11.7188 5.15726 11.8011 5.33249 11.9476C5.50772 12.0941 5.60616 12.2928 5.60616 12.5ZM25.5211 3.66094C25.6963 3.80744 25.7947 4.00612 25.7947 4.21328C25.7947 4.42044 25.6963 4.61912 25.5211 4.76562L22.8787 6.97656C22.7919 7.0491 22.6888 7.10661 22.5753 7.14583C22.4618 7.18505 22.3403 7.20519 22.2175 7.20512C21.9695 7.20498 21.7318 7.12248 21.5566 6.97578C21.4699 6.90314 21.4011 6.81693 21.3542 6.72207C21.3073 6.6272 21.2832 6.52554 21.2833 6.42288C21.2834 6.21557 21.3821 6.0168 21.5575 5.87031L24.1999 3.66094C24.3751 3.51448 24.6128 3.4322 24.8605 3.4322C25.1083 3.4322 25.3459 3.51448 25.5211 3.66094V3.66094ZM8.34196 18.025C8.51713 18.1715 8.61553 18.3702 8.61553 18.5773C8.61553 18.7845 8.51713 18.9832 8.34196 19.1297L5.69959 21.3391C5.52337 21.4814 5.28735 21.5601 5.04236 21.5583C4.79738 21.5566 4.56303 21.4744 4.38979 21.3295C4.21655 21.1847 4.11829 20.9887 4.11616 20.7839C4.11403 20.5791 4.20821 20.3817 4.37841 20.2344L7.02078 18.025C7.196 17.8785 7.43361 17.7963 7.68137 17.7963C7.92913 17.7963 8.16675 17.8785 8.34196 18.025V18.025ZM25.5211 21.3391C25.3459 21.4855 25.1083 21.5678 24.8605 21.5678C24.6128 21.5678 24.3751 21.4855 24.1999 21.3391L21.5575 19.1297C21.3873 18.9823 21.2932 18.785 21.2953 18.5802C21.2974 18.3753 21.3957 18.1794 21.5689 18.0345C21.7422 17.8897 21.9765 17.8075 22.2215 17.8057C22.4665 17.8039 22.7025 17.8827 22.8787 18.025L25.5211 20.2344C25.6963 20.3809 25.7947 20.5796 25.7947 20.7867C25.7947 20.9939 25.6963 21.1926 25.5211 21.3391ZM8.34196 6.97656C8.16675 7.12302 7.92913 7.2053 7.68137 7.2053C7.43361 7.2053 7.196 7.12302 7.02078 6.97656L4.37841 4.76562C4.28917 4.69356 4.21799 4.60735 4.16902 4.51203C4.12005 4.41672 4.09427 4.3142 4.0932 4.21047C4.09212 4.10674 4.11576 4.00386 4.16274 3.90785C4.20972 3.81184 4.2791 3.72461 4.36683 3.65125C4.45456 3.5779 4.55888 3.51989 4.67371 3.48061C4.78854 3.44133 4.91158 3.42156 5.03564 3.42246C5.1597 3.42336 5.28231 3.44491 5.39631 3.48586C5.5103 3.5268 5.6134 3.58632 5.69959 3.66094L8.34196 5.87031C8.42898 5.94288 8.49801 6.0291 8.54512 6.12401C8.59222 6.21892 8.61647 6.32068 8.61647 6.42344C8.61647 6.5262 8.59222 6.62795 8.54512 6.72287C8.49801 6.81778 8.42898 6.90399 8.34196 6.97656V6.97656Z" fill="#E88F4A"/>
</svg>
