<svg width="22" height="23" viewBox="0 0 22 23" fill="none" xmlns="http://www.w3.org/2000/svg">
<path d="M19.5338 0.5625H2.34625C1.05231 0.5625 0.00250244 1.6123 0.00250244 2.90625V20.0938C0.00250244 21.3877 1.05231 22.4375 2.34625 22.4375H19.5338C20.8277 22.4375 21.8775 21.3877 21.8775 20.0938V2.90625C21.8775 1.6123 20.8277 0.5625 19.5338 0.5625ZM13.5425 19.2979C13.1324 19.3711 12.981 19.1172 12.981 18.9072C12.981 18.6436 12.9908 17.2959 12.9908 16.207C12.9908 15.4453 12.7369 14.9619 12.439 14.708C14.2457 14.5078 16.15 14.2588 16.15 11.1387C16.15 10.25 15.8326 9.80566 15.315 9.23438C15.398 9.02441 15.6763 8.16016 15.232 7.03711C14.5533 6.82715 13.0006 7.91113 13.0006 7.91113C12.356 7.73047 11.6578 7.63769 10.9693 7.63769C10.2808 7.63769 9.58258 7.73047 8.93805 7.91113C8.93805 7.91113 7.38531 6.82715 6.7066 7.03711C6.26227 8.15527 6.53571 9.01953 6.6236 9.23438C6.10602 9.80566 5.86188 10.25 5.86188 11.1387C5.86188 14.2441 7.68317 14.5078 9.48981 14.708C9.25543 14.918 9.04547 15.2793 8.97223 15.7969C8.50836 16.0068 7.32184 16.3682 6.61383 15.1182C6.16949 14.3467 5.36871 14.2832 5.36871 14.2832C4.5777 14.2734 5.315 14.7813 5.315 14.7813C5.84235 15.0254 6.21344 15.9629 6.21344 15.9629C6.68707 17.4131 8.9527 16.9248 8.9527 16.9248C8.9527 17.6035 8.96246 18.707 8.96246 18.9072C8.96246 19.1172 8.81598 19.3711 8.40094 19.2979C5.17828 18.2188 2.92242 15.1523 2.92242 11.5684C2.92242 7.08594 6.35016 3.68262 10.8326 3.68262C15.315 3.68262 18.9478 7.08594 18.9478 11.5684C18.9527 15.1523 16.7652 18.2236 13.5425 19.2979ZM8.7525 16.3145C8.65973 16.334 8.57184 16.2949 8.56207 16.2314C8.55231 16.1582 8.61578 16.0947 8.70856 16.0752C8.80133 16.0654 8.88922 16.1045 8.89899 16.168C8.91364 16.2314 8.85016 16.2949 8.7525 16.3145ZM8.28864 16.2705C8.28864 16.334 8.21539 16.3877 8.11774 16.3877C8.01031 16.3975 7.93707 16.3438 7.93707 16.2705C7.93707 16.207 8.01031 16.1533 8.10797 16.1533C8.20074 16.1436 8.28864 16.1973 8.28864 16.2705ZM7.61969 16.2168C7.60016 16.2803 7.5025 16.3096 7.41949 16.2803C7.32672 16.2607 7.26325 16.1875 7.28278 16.124C7.30231 16.0605 7.39996 16.0313 7.48297 16.0508C7.58063 16.0801 7.6441 16.1533 7.61969 16.2168ZM7.0191 15.9531C6.97516 16.0068 6.88238 15.9971 6.80914 15.9238C6.7359 15.8604 6.71637 15.7676 6.7652 15.7236C6.80914 15.6699 6.90192 15.6797 6.97516 15.7529C7.03864 15.8164 7.06305 15.9141 7.0191 15.9531ZM6.57477 15.5088C6.53082 15.5381 6.44781 15.5088 6.3941 15.4355C6.34039 15.3623 6.34039 15.2793 6.3941 15.2451C6.44781 15.2012 6.53082 15.2354 6.57477 15.3086C6.62848 15.3818 6.62848 15.4697 6.57477 15.5088ZM6.25739 15.0352C6.21344 15.0791 6.1402 15.0547 6.08649 15.0059C6.03278 14.9424 6.02301 14.8691 6.06696 14.835C6.1109 14.791 6.18414 14.8154 6.23785 14.8643C6.29156 14.9277 6.30133 15.001 6.25739 15.0352ZM5.93024 14.6738C5.91071 14.7178 5.84723 14.7275 5.79352 14.6934C5.73004 14.6641 5.70074 14.6104 5.72028 14.5664C5.73981 14.5371 5.79352 14.5225 5.85699 14.5469C5.92047 14.5811 5.94977 14.6348 5.93024 14.6738Z" fill="#525558"/>
</svg>
