<svg width="25" height="25" viewBox="0 0 25 25" fill="none" xmlns="http://www.w3.org/2000/svg">
<path fill-rule="evenodd" clip-rule="evenodd" d="M1.04166 2.95624C1.04166 2.44846 1.24338 1.96148 1.60243 1.60243C1.96149 1.24337 2.44847 1.04166 2.95625 1.04166H22.0417C22.2933 1.04125 22.5426 1.09047 22.7751 1.18652C23.0077 1.28257 23.2191 1.42354 23.3971 1.60138C23.5752 1.77922 23.7164 1.99043 23.8127 2.22292C23.909 2.45541 23.9585 2.7046 23.9583 2.95624V22.0417C23.9586 22.2933 23.9092 22.5426 23.8131 22.7752C23.7169 23.0078 23.5759 23.2192 23.3979 23.3972C23.22 23.5752 23.0087 23.7164 22.7762 23.8127C22.5436 23.909 22.2944 23.9585 22.0427 23.9583H2.95625C2.70473 23.9583 2.45568 23.9088 2.22333 23.8125C1.99097 23.7162 1.77986 23.5751 1.60206 23.3972C1.42427 23.2193 1.28326 23.0081 1.1871 22.7757C1.09095 22.5433 1.04153 22.2942 1.04166 22.0427V2.95624ZM10.1125 9.77916H13.2156V11.3375C13.6635 10.4417 14.8094 9.63541 16.5312 9.63541C19.8323 9.63541 20.6146 11.4198 20.6146 14.6937V20.7583H17.274V15.4396C17.274 13.575 16.826 12.5229 15.6885 12.5229C14.1104 12.5229 13.4542 13.6573 13.4542 15.4396V20.7583H10.1125V9.77916ZM4.38333 20.6156H7.725V9.63541H4.38333V20.6146V20.6156ZM8.20312 6.05416C8.20942 6.34028 8.15851 6.62477 8.05337 6.89094C7.94823 7.15712 7.79099 7.39961 7.59086 7.60419C7.39074 7.80877 7.15177 7.97132 6.88797 8.08229C6.62418 8.19326 6.34087 8.25043 6.05469 8.25043C5.7685 8.25043 5.48519 8.19326 5.2214 8.08229C4.9576 7.97132 4.71863 7.80877 4.51851 7.60419C4.31838 7.39961 4.16114 7.15712 4.056 6.89094C3.95086 6.62477 3.89995 6.34028 3.90625 6.05416C3.91861 5.49255 4.1504 4.95811 4.55196 4.56529C4.95352 4.17247 5.49294 3.95251 6.05469 3.95251C6.61643 3.95251 7.15585 4.17247 7.55741 4.56529C7.95897 4.95811 8.19076 5.49255 8.20312 6.05416Z" fill="#525558"/>
</svg>
