<svg width="24" height="25" viewBox="0 0 24 25" fill="none" xmlns="http://www.w3.org/2000/svg">
<path d="M9.375 0.433316C9.52752 0.618648 9.62096 0.845459 9.64324 1.08444C9.66553 1.32343 9.61563 1.56361 9.5 1.77394C8.59665 3.43249 8.1249 5.29159 8.12813 7.18019C8.12813 13.463 13.25 18.5505 19.5625 18.5505C20.3859 18.5505 21.1875 18.4646 21.9578 18.3005C22.1939 18.2494 22.4399 18.2689 22.665 18.3567C22.8901 18.4445 23.0843 18.5967 23.2234 18.7943C23.3703 18.9996 23.4452 19.2478 23.4364 19.5001C23.4276 19.7525 23.3357 19.9949 23.175 20.1896C21.9495 21.6949 20.4035 22.9078 18.6497 23.7399C16.896 24.5719 14.9786 25.002 13.0375 24.9989C5.83437 24.9989 0 19.1958 0 12.0458C0 6.66457 3.30313 2.04894 8.00625 0.0926905C8.24053 -0.0063222 8.50061 -0.0266441 8.74742 0.0347775C8.99424 0.0961991 9.21445 0.236048 9.375 0.433316Z" fill="#1D1D1D"/>
</svg>
