<svg width="40" height="40" viewBox="0 0 40 40" fill="none" xmlns="http://www.w3.org/2000/svg">
<path d="M20.0001 11.6667C17.7899 11.6667 15.6703 12.5446 14.1075 14.1074C12.5447 15.6702 11.6667 17.7899 11.6667 20C11.6667 22.2101 12.5447 24.3297 14.1075 25.8925C15.6703 27.4553 17.7899 28.3333 20.0001 28.3333C22.2102 28.3333 24.3298 27.4553 25.8926 25.8925C27.4554 24.3297 28.3334 22.2101 28.3334 20C28.3334 17.7899 27.4554 15.6702 25.8926 14.1074C24.3298 12.5446 22.2102 11.6667 20.0001 11.6667Z" fill="#525558"/>
<path fill-rule="evenodd" clip-rule="evenodd" d="M20.0001 1.66666C20.4421 1.66666 20.866 1.84225 21.1786 2.15481C21.4912 2.46737 21.6667 2.8913 21.6667 3.33332V4.99999C21.6667 5.44202 21.4912 5.86594 21.1786 6.1785C20.866 6.49106 20.4421 6.66666 20.0001 6.66666C19.5581 6.66666 19.1341 6.49106 18.8216 6.1785C18.509 5.86594 18.3334 5.44202 18.3334 4.99999V3.33332C18.3334 2.8913 18.509 2.46737 18.8216 2.15481C19.1341 1.84225 19.5581 1.66666 20.0001 1.66666ZM5.48841 5.48832C5.80096 5.17587 6.22481 5.00035 6.66675 5.00035C7.10869 5.00035 7.53254 5.17587 7.84508 5.48832L10.3451 7.98832C10.6487 8.30266 10.8167 8.72366 10.8129 9.16066C10.8091 9.59765 10.6338 10.0157 10.3248 10.3247C10.0158 10.6337 9.59775 10.809 9.16075 10.8128C8.72376 10.8166 8.30275 10.6486 7.98842 10.345L5.48841 7.84499C5.17596 7.53244 5.00044 7.1086 5.00044 6.66666C5.00044 6.22472 5.17596 5.80087 5.48841 5.48832ZM34.5117 5.48832C34.8242 5.80087 34.9997 6.22472 34.9997 6.66666C34.9997 7.1086 34.8242 7.53244 34.5117 7.84499L32.0118 10.345C31.858 10.5042 31.6741 10.6311 31.4708 10.7185C31.2674 10.8058 31.0487 10.8518 30.8274 10.8537C30.6061 10.8557 30.3867 10.8135 30.1818 10.7297C29.977 10.6459 29.7909 10.5221 29.6344 10.3656C29.4779 10.2092 29.3542 10.0231 29.2704 9.81825C29.1866 9.61342 29.1444 9.39395 29.1463 9.17265C29.1483 8.95136 29.1942 8.73266 29.2816 8.52932C29.3689 8.32598 29.4959 8.14207 29.6551 7.98832L32.1551 5.48832C32.4676 5.17587 32.8915 5.00035 33.3334 5.00035C33.7754 5.00035 34.1992 5.17587 34.5117 5.48832ZM1.66675 20C1.66675 19.558 1.84234 19.134 2.1549 18.8215C2.46746 18.5089 2.89139 18.3333 3.33341 18.3333H5.00008C5.44211 18.3333 5.86603 18.5089 6.17859 18.8215C6.49115 19.134 6.66675 19.558 6.66675 20C6.66675 20.442 6.49115 20.8659 6.17859 21.1785C5.86603 21.4911 5.44211 21.6667 5.00008 21.6667H3.33341C2.89139 21.6667 2.46746 21.4911 2.1549 21.1785C1.84234 20.8659 1.66675 20.442 1.66675 20ZM33.3334 20C33.3334 19.558 33.509 19.134 33.8216 18.8215C34.1341 18.5089 34.5581 18.3333 35.0001 18.3333H36.6667C37.1088 18.3333 37.5327 18.5089 37.8453 18.8215C38.1578 19.134 38.3334 19.558 38.3334 20C38.3334 20.442 38.1578 20.8659 37.8453 21.1785C37.5327 21.4911 37.1088 21.6667 36.6667 21.6667H35.0001C34.5581 21.6667 34.1341 21.4911 33.8216 21.1785C33.509 20.8659 33.3334 20.442 33.3334 20ZM10.3451 29.655C10.6575 29.9675 10.8331 30.3914 10.8331 30.8333C10.8331 31.2753 10.6575 31.6991 10.3451 32.0117L7.84508 34.5117C7.53074 34.8153 7.10974 34.9832 6.67275 34.9795C6.23575 34.9757 5.81773 34.8004 5.50872 34.4914C5.1997 34.1823 5.02442 33.7643 5.02062 33.3273C5.01683 32.8903 5.18482 32.4693 5.48841 32.155L7.98842 29.655C8.30096 29.3425 8.72481 29.167 9.16675 29.167C9.60869 29.167 10.0325 29.3425 10.3451 29.655ZM29.6551 29.655C29.9676 29.3425 30.3915 29.167 30.8334 29.167C31.2754 29.167 31.6992 29.3425 32.0118 29.655L34.5117 32.155C34.8153 32.4693 34.9833 32.8903 34.9795 33.3273C34.9757 33.7643 34.8005 34.1823 34.4914 34.4914C34.1824 34.8004 33.7644 34.9757 33.3274 34.9795C32.8904 34.9832 32.4694 34.8153 32.1551 34.5117L29.6551 32.0117C29.3426 31.6991 29.1671 31.2753 29.1671 30.8333C29.1671 30.3914 29.3426 29.9675 29.6551 29.655ZM20.0001 33.3333C20.4421 33.3333 20.866 33.5089 21.1786 33.8215C21.4912 34.134 21.6667 34.558 21.6667 35V36.6667C21.6667 37.1087 21.4912 37.5326 21.1786 37.8452C20.866 38.1577 20.4421 38.3333 20.0001 38.3333C19.5581 38.3333 19.1341 38.1577 18.8216 37.8452C18.509 37.5326 18.3334 37.1087 18.3334 36.6667V35C18.3334 34.558 18.509 34.134 18.8216 33.8215C19.1341 33.5089 19.5581 33.3333 20.0001 33.3333Z" fill="#525558"/>
</svg>
